<?xml version="1.0" encoding="UTF-8"?><svg id="Layer_2" xmlns="http://www.w3.org/2000/svg" xmlns:xlink="http://www.w3.org/1999/xlink" viewBox="0 0 99.11 76.05"><defs><style>.cls-1{fill:none;stroke:#000;stroke-miterlimit:10;stroke-width:4px;}</style><symbol id="New_Symbol" viewBox="0 0 99.11 76.05"><g><path d="M68.53,27.72c-.92-.98-2.08-1.74-3.38-2.18-.86-.42-1.76-.81-2.67-1.19-7.96-3.3-16.66-3.02-26.07,0-4.37,1.4-8.3,3.72-8.3,8.3v12.18c0,2.13,.89,3.7,2.26,4.94,.92,.98,2.08,1.74,3.38,2.18,.86,.42,1.76,.81,2.67,1.19,7.96,3.3,16.66,3.02,26.07,0,4.37-1.4,8.3-3.72,8.3-8.3v-12.18c0-2.14-.89-3.7-2.26-4.94Z"/><line class="cls-1" x1="68.8" y1="45.74" x2="97.7" y2="74.64"/><line class="cls-1" x1="30.31" y1="45.74" x2="1.41" y2="74.64"/><line class="cls-1" x1="68.8" y1="30.31" x2="97.7" y2="1.41"/><line class="cls-1" x1="30.31" y1="30.31" x2="1.41" y2="1.41"/></g></symbol></defs><g id="Layer_1-2"><use width="99.11" height="76.05" xlink:href="#New_Symbol"/></g></svg>